<svg width="512" height="512" viewBox="0 0 512 512" fill="none" xmlns="http://www.w3.org/2000/svg">
  <rect width="512" height="512" rx="128" fill="#3B82F6"/>
  <g transform="translate(128, 128) scale(1)" fill="white">
    <path d="M256 128C256 198.692 198.692 256 128 256C57.308 256 0 198.692 0 128C0 57.308 57.308 0 128 0C198.692 0 256 57.308 256 128ZM42.667 128C42.667 174.76 81.24 213.333 128 213.333C174.76 213.333 213.333 174.76 213.333 128C213.333 81.24 174.76 42.667 128 42.667C81.24 42.667 42.667 81.24 42.667 128Z"/>
    <path d="M170.667 85.333C170.667 97.254 161.254 106.667 149.333 106.667C137.413 106.667 128 97.254 128 85.333C128 73.413 137.413 64 149.333 64C161.254 64 170.667 73.413 170.667 85.333Z"/>
  </g>
  <path d="M352 352H160C151.163 352 144 359.163 144 368V400C144 408.837 151.163 416 160 416H352C360.837 416 368 408.837 368 400V368C368 359.163 360.837 352 352 352Z" fill="white"/>
  <path d="M352 288H160C151.163 288 144 295.163 144 304V336C144 344.837 151.163 352 160 352H352C360.837 352 368 344.837 368 336V304C368 295.163 360.837 288 352 288Z" fill="white"/>
</svg> 